<?xml version="1.0" encoding="utf-8"?>
<!-- Generator: Adobe Illustrator 18.1.0, SVG Export Plug-In . SVG Version: 6.00 Build 0)  -->
<!DOCTYPE svg PUBLIC "-//W3C//DTD SVG 1.1//EN" "http://www.w3.org/Graphics/SVG/1.1/DTD/svg11.dtd">
<svg version="1.1" id="Layer_1" xmlns="http://www.w3.org/2000/svg" xmlns:xlink="http://www.w3.org/1999/xlink" x="0px" y="0px"
	 viewBox="0 0 720 720" enable-background="new 0 0 720 720" xml:space="preserve">
<rect x="5110.5" y="1242" fill="#0768EE" width="3027.5" height="1060"/>
<rect x="5110.5" y="2302.5" fill="#FF9817" width="3027.5" height="1060"/>
<rect x="5110.5" y="3361" fill="#2FB927" width="3036" height="1060"/>
<rect x="5110.5" y="4421" fill="#ED290F" width="3027.5" height="1060"/>
<rect x="8122.5" y="1242" fill="#97DBEE" width="3027.5" height="1060"/>
<rect x="8122.5" y="2302.5" fill="#F3DA5C" width="3027.5" height="1060"/>
<rect x="8114" y="3361" fill="#D1F0A1" width="3036" height="1060"/>
<rect x="8122.5" y="4421" fill="#F8AEBB" width="3027.5" height="1060"/>
<circle fill="none" stroke="#0768EE" stroke-width="15" stroke-miterlimit="10" cx="360" cy="360" r="329"/>
<path fill="#0768EE" d="M360,90C210.9,90,90,210.9,90,360s120.9,270,270,270s270-120.9,270-270S509.1,90,360,90z M219.6,189.6
	c33-22.6,78-14.2,100.7,18.8l-119.4,81.9C178.2,257.2,186.6,212.2,219.6,189.6z M439.4,535c0.7,0.4,1.1,1,1.4,1.9l6.8,26.3
	c0.6,2.2-0.6,5.6-3.1,8.9h0c-5.9,7.8-15.6,11.1-17,5.9l-6.8-26.3c-0.6-2.2,0.6-5.6,3.1-8.9c0,0,0.1-0.1,0.1-0.1
	c-19.6,8.4-41.2,13.1-63.9,13.1c-23.1,0-45.1-4.8-64.9-13.5c0.1,0.2,0.3,0.4,0.4,0.5c2.5,3.3,3.7,6.6,3.1,8.9l-6.8,26.3
	c-1.4,5.3-11.1,1.9-17-5.9c-2.5-3.3-3.7-6.6-3.1-8.9l6.8-26.3c0.3-1,0.9-1.7,1.7-2.1c-49.2-27.9-82.4-80.7-82.4-141.2
	c0-89.6,72.6-162.2,162.2-162.2h-9.4v-22.9H373v22.9h-13.2c89.6,0,162.2,72.6,162.2,162.2C522.1,454.3,488.7,507.2,439.4,535z
	 M519.2,291.5l-119.4-81.9c22.6-33,67.7-41.4,100.7-18.8C533.4,213.4,541.8,258.5,519.2,291.5z"/>
<g>
	<g>
		<ellipse fill="#0768EE" cx="359.4" cy="365.1" rx="6" ry="35"/>
		
			<ellipse transform="matrix(0.9678 -0.2518 0.2518 0.9678 -87.2518 108.2709)" fill="#0768EE" cx="379.5" cy="395.1" rx="20.8" ry="4"/>
	</g>
	<circle fill="#0768EE" cx="359.1" cy="396.7" r="14.9"/>
</g>
</svg>
