<?xml version="1.0" encoding="utf-8"?>
<!-- Generator: Adobe Illustrator 18.1.0, SVG Export Plug-In . SVG Version: 6.00 Build 0)  -->
<!DOCTYPE svg PUBLIC "-//W3C//DTD SVG 1.1//EN" "http://www.w3.org/Graphics/SVG/1.1/DTD/svg11.dtd">
<svg version="1.1" id="Layer_1" xmlns="http://www.w3.org/2000/svg" xmlns:xlink="http://www.w3.org/1999/xlink" x="0px" y="0px"
	 viewBox="0 0 504 504" enable-background="new 0 0 504 504" xml:space="preserve">
<g>
	<g>
		<g>
			<g>
				<g>
					<path fill="#2FB927" d="M-310.2,234.5l7,5.8c0,0,0.1-0.1,0.3-0.4c0.2-0.3,0.5-0.6,0.9-1.1c0.7-1,1.8-2.4,3-4.1
						c0.5-0.9,1.1-1.9,1.8-2.9c0.6-1,1.3-2.1,1.8-3.3c0.6-1.2,1.2-2.4,1.7-3.6c0.3-0.6,0.6-1.3,0.8-1.9l0.7-2
						c1.1-2.6,1.7-5.3,2.3-7.8c0.4-1.3,0.5-2.5,0.7-3.7c0.2-1.2,0.3-2.3,0.5-3.3c0.2-2.1,0.2-3.8,0.3-5c0.1-1.2,0.1-1.9,0.1-1.9
						h-9.1c0,0,0,0.6-0.1,1.6c-0.1,1-0.1,2.5-0.3,4.3c-0.1,0.9-0.3,1.8-0.4,2.9c-0.2,1-0.3,2.1-0.6,3.2c-0.6,2.2-1.1,4.5-2,6.7
						l-0.6,1.7c-0.2,0.6-0.4,1.1-0.7,1.6c-0.5,1.1-1,2.1-1.5,3.1c-0.4,1-1.1,1.9-1.6,2.8c-0.5,0.9-1,1.7-1.5,2.5
						c-1,1.5-2,2.6-2.6,3.5c-0.3,0.4-0.6,0.7-0.7,1C-310.1,234.4-310.2,234.5-310.2,234.5z"/>
					<path fill="#2FB927" d="M-312.8,232.3l0.5,0.5c0,0,0.1-0.1,0.3-0.3c0.2-0.2,0.4-0.5,0.7-0.9c0.6-0.8,1.5-1.9,2.5-3.3
						c0.4-0.7,0.9-1.5,1.4-2.4c0.5-0.8,1.1-1.7,1.5-2.7c0.5-1,0.9-1.9,1.4-3c0.3-0.5,0.5-1,0.6-1.6l0.6-1.6c0.9-2.1,1.4-4.3,1.9-6.4
						c0.3-1,0.4-2.1,0.6-3c0.1-1,0.3-1.9,0.4-2.7c0.2-1.7,0.2-3.1,0.2-4.1c0.1-1,0.1-1.6,0.1-1.6h-0.7c0,0,0,0.6-0.1,1.5
						c-0.1,1-0.1,2.4-0.2,4.1c-0.1,0.8-0.3,1.7-0.4,2.7c-0.2,0.9-0.2,2-0.5,3c-0.5,2-1,4.2-1.9,6.3l-0.6,1.6c-0.2,0.5-0.4,1-0.6,1.5
						c-0.5,1-0.9,2-1.4,2.9c-0.4,1-1,1.8-1.5,2.6c-0.5,0.8-1,1.6-1.4,2.3c-1,1.4-1.8,2.5-2.4,3.3c-0.3,0.4-0.5,0.7-0.7,0.9
						C-312.7,232.2-312.8,232.3-312.8,232.3z"/>
				</g>
				<g>
					<path fill="#2FB927" d="M-342.6,253.2l1.6,9c0,0,0.7-0.1,1.9-0.3c1.2-0.3,2.9-0.7,4.9-1.3c1-0.2,2.1-0.6,3.2-1
						c1.1-0.4,2.3-0.8,3.5-1.3c1.2-0.5,2.4-1.1,3.6-1.7c0.6-0.3,1.2-0.6,1.9-0.9c0.6-0.3,1.2-0.7,1.8-1c1.2-0.7,2.4-1.4,3.5-2.2
						c1.1-0.8,2.2-1.6,3.2-2.4c2.2-1.5,3.9-3.2,5.4-4.6c0.4-0.4,0.8-0.7,1.1-1c0.3-0.4,0.6-0.7,0.9-1c0.6-0.6,1.1-1.2,1.5-1.6
						c0.8-0.9,1.3-1.4,1.3-1.4l-7-5.8c0,0-0.4,0.4-1.1,1.2c-0.4,0.4-0.8,0.9-1.3,1.4c-0.2,0.3-0.5,0.6-0.8,0.9
						c-0.3,0.3-0.6,0.6-0.9,0.9c-1.4,1.2-2.8,2.7-4.7,4c-0.9,0.7-1.8,1.4-2.8,2c-1,0.6-2,1.2-3,1.8c-0.5,0.3-1,0.6-1.5,0.9
						c-0.5,0.3-1.1,0.5-1.6,0.8c-1.1,0.5-2.1,1-3.1,1.5c-1.1,0.4-2.1,0.8-3,1.1c-1,0.4-1.9,0.7-2.7,0.9c-1.7,0.4-3.2,0.8-4.2,1.1
						C-342,253.1-342.6,253.2-342.6,253.2z"/>
					<path fill="#2FB927" d="M-343.2,249.8l0.1,0.7c0,0,0.6-0.1,1.5-0.2c1-0.2,2.3-0.6,4-1c0.8-0.2,1.7-0.5,2.6-0.9
						c0.9-0.3,1.9-0.7,2.9-1.1c1-0.4,2-0.9,3-1.4c0.5-0.2,1-0.5,1.5-0.7c0.5-0.2,1-0.6,1.5-0.9c1-0.6,1.9-1.2,2.9-1.8
						c0.9-0.6,1.8-1.3,2.6-2c1.8-1.2,3.1-2.7,4.4-3.8c0.3-0.3,0.6-0.6,0.9-0.8c0.3-0.3,0.5-0.6,0.7-0.8c0.5-0.5,0.9-1,1.2-1.3
						c0.7-0.7,1.1-1.2,1.1-1.2l-0.5-0.5c0,0-0.4,0.4-1,1.1c-0.3,0.4-0.7,0.8-1.2,1.3c-0.2,0.3-0.5,0.5-0.7,0.8
						c-0.3,0.3-0.6,0.5-0.9,0.8c-1.3,1.1-2.6,2.5-4.4,3.7c-0.8,0.6-1.7,1.3-2.6,1.9c-0.9,0.6-1.9,1.2-2.9,1.7
						c-0.5,0.3-0.9,0.6-1.4,0.8c-0.5,0.2-1,0.5-1.5,0.7c-1,0.5-2,1-2.9,1.4c-1,0.4-1.9,0.7-2.8,1c-0.9,0.3-1.7,0.7-2.6,0.8
						c-1.6,0.4-3,0.8-3.9,1C-342.6,249.7-343.2,249.8-343.2,249.8z"/>
				</g>
				<g>
					<path fill="#2FB927" d="M-379.5,246.7l-4.6,7.9c0,0,0.6,0.4,1.6,1c1.1,0.5,2.7,1.3,4.5,2.2c0.9,0.5,2,0.8,3.1,1.2
						c1.1,0.4,2.3,0.8,3.5,1.3c1.3,0.3,2.6,0.7,3.9,1c0.7,0.2,1.3,0.3,2,0.5c0.7,0.2,1.4,0.2,2.1,0.3c1.4,0.2,2.8,0.4,4.1,0.6
						c1.4,0.2,2.7,0.2,4,0.3c0.7,0,1.3,0.1,1.9,0.1c0.6,0,1.2,0.1,1.8,0c1.2-0.1,2.3-0.1,3.4-0.2c1-0.1,2-0.1,2.8-0.2
						c0.8-0.1,1.6-0.2,2.2-0.3c1.2-0.2,1.9-0.3,1.9-0.3l-1.6-9c0,0-0.6,0.1-1.6,0.2c-0.5,0.1-1.1,0.2-1.9,0.3
						c-0.7,0.1-1.5,0.1-2.4,0.2c-0.9,0-1.9,0.1-2.9,0.1c-0.5,0-1,0-1.6,0c-0.5,0-1.1-0.1-1.6-0.1c-1.1-0.1-2.3-0.1-3.4-0.2
						c-1.2-0.2-2.3-0.4-3.5-0.5c-0.6-0.1-1.2-0.2-1.8-0.3c-0.6-0.1-1.1-0.3-1.7-0.4c-1.1-0.3-2.3-0.6-3.3-0.9
						c-1.1-0.4-2.1-0.8-3-1.1c-1-0.4-1.9-0.6-2.7-1.1c-1.6-0.8-3-1.4-3.9-1.9C-379,247-379.5,246.7-379.5,246.7z"/>
					<path fill="#2FB927" d="M-377.8,243.7l-0.4,0.6c0,0,0.5,0.3,1.3,0.8c0.9,0.4,2.2,1,3.7,1.8c0.7,0.4,1.6,0.7,2.6,1
						c0.9,0.3,1.9,0.7,2.9,1.1c1,0.3,2.1,0.5,3.2,0.8c0.5,0.1,1.1,0.3,1.6,0.4c0.5,0.1,1.1,0.2,1.7,0.3c1.1,0.2,2.2,0.3,3.3,0.5
						c1.1,0.1,2.2,0.1,3.3,0.2c0.5,0,1.1,0.1,1.6,0.1c0.5,0,1,0.1,1.5,0c1-0.1,1.9-0.1,2.8-0.1c0.8-0.1,1.6,0,2.3-0.2
						c0.7-0.1,1.3-0.2,1.8-0.3c1-0.1,1.5-0.2,1.5-0.2l-0.1-0.7c0,0-0.6,0.1-1.5,0.2c-0.5,0.1-1.1,0.2-1.7,0.3
						c-0.7,0.1-1.5,0.1-2.3,0.2c-0.8,0-1.8,0.1-2.7,0.1c-0.5,0-1,0-1.5,0c-0.5,0-1-0.1-1.5-0.1c-1-0.1-2.1-0.1-3.2-0.2
						c-1.1-0.2-2.2-0.3-3.3-0.5c-0.6-0.1-1.1-0.1-1.7-0.3c-0.5-0.1-1.1-0.3-1.6-0.4c-1.1-0.3-2.1-0.5-3.1-0.8c-1-0.4-1.9-0.7-2.8-1
						c-0.9-0.3-1.8-0.6-2.5-1c-1.5-0.7-2.8-1.3-3.7-1.8C-377.3,244-377.8,243.7-377.8,243.7z"/>
				</g>
				<g>
					<path fill="#2FB927" d="M-403.5,218l-8.5,3.1c0,0,0.2,0.7,0.7,1.8c0.4,1.2,1.2,2.7,2.1,4.6c1.7,3.8,4.8,8.5,8.3,12.8
						c1.9,2,3.7,4.2,5.7,5.9c1,0.9,1.9,1.7,2.8,2.5c1,0.7,1.9,1.4,2.7,2c0.8,0.6,1.6,1.2,2.3,1.7c0.7,0.4,1.4,0.8,1.9,1.1
						c1,0.6,1.6,1,1.6,1l4.6-7.9c0,0-0.5-0.3-1.4-0.9c-0.4-0.3-1-0.6-1.6-1c-0.6-0.4-1.2-0.9-2-1.4c-0.7-0.5-1.5-1.1-2.3-1.7
						c-0.8-0.7-1.6-1.4-2.4-2.2c-1.7-1.4-3.2-3.3-4.9-5c-3-3.7-5.6-7.7-7.1-11c-0.8-1.6-1.5-2.9-1.8-3.9
						C-403.3,218.6-403.5,218-403.5,218z"/>
					<path fill="#2FB927" d="M-400.3,216.8l-0.7,0.2c0,0,0.2,0.5,0.5,1.5c0.3,1,1,2.2,1.7,3.7c1.4,3.1,3.9,6.9,6.8,10.5
						c1.6,1.7,3,3.4,4.6,4.8c0.8,0.7,1.5,1.4,2.3,2.1c0.8,0.6,1.5,1.1,2.2,1.6c0.7,0.5,1.3,1,1.9,1.4c0.6,0.4,1.1,0.7,1.5,0.9
						c0.8,0.5,1.3,0.8,1.3,0.8l0.4-0.6c0,0-0.5-0.3-1.3-0.8c-0.4-0.3-0.9-0.6-1.5-0.9c-0.6-0.4-1.2-0.9-1.8-1.4
						c-0.7-0.5-1.4-1-2.2-1.6c-0.7-0.6-1.5-1.3-2.3-2c-1.6-1.3-3-3.1-4.6-4.7c-2.8-3.5-5.3-7.2-6.7-10.3c-0.7-1.5-1.4-2.8-1.7-3.7
						C-400.1,217.4-400.3,216.8-400.3,216.8z"/>
				</g>
				<g>
					<path fill="#2FB927" d="M-403.5,180.6l-8.5-3.1c0,0-0.2,0.7-0.7,1.8c-0.1,0.3-0.2,0.6-0.3,0.9c-0.1,0.4-0.2,0.7-0.3,1.1
						c-0.2,0.8-0.5,1.8-0.7,2.8c-0.6,2-0.9,4.4-1.3,7c-0.1,0.6-0.2,1.3-0.3,2c0,0.7-0.1,1.3-0.1,2c-0.1,1.4-0.1,2.8-0.2,4.1
						c0.1,1.4,0.1,2.8,0.2,4.1c0,0.7,0.1,1.4,0.1,2c0,0.7,0.2,1.3,0.3,2c0.4,2.6,0.7,5,1.3,7c0.3,1,0.5,1.9,0.7,2.8
						c0.1,0.4,0.2,0.8,0.3,1.1c0.1,0.3,0.2,0.7,0.3,0.9c0.4,1.1,0.7,1.8,0.7,1.8l8.5-3.1c0,0-0.2-0.6-0.6-1.5
						c-0.1-0.2-0.2-0.5-0.3-0.8c-0.1-0.3-0.2-0.6-0.3-1c-0.2-0.7-0.4-1.5-0.6-2.4c-1-3.5-1.5-8.2-1.6-13c0.1-4.8,0.7-9.5,1.6-13
						c0.2-0.9,0.4-1.7,0.6-2.4c0.1-0.4,0.2-0.7,0.3-1c0.1-0.3,0.2-0.6,0.3-0.8C-403.7,181.1-403.5,180.6-403.5,180.6z"/>
					<path fill="#2FB927" d="M-400.3,181.7l-0.7-0.2c0,0-0.2,0.5-0.5,1.5c-0.1,0.2-0.2,0.5-0.3,0.8c-0.1,0.3-0.2,0.6-0.2,0.9
						c-0.2,0.7-0.4,1.4-0.6,2.3c-0.9,3.3-1.4,7.8-1.5,12.4c0.1,4.5,0.6,9.1,1.5,12.4c0.2,0.8,0.4,1.6,0.6,2.3
						c0.1,0.3,0.2,0.7,0.2,0.9c0.1,0.3,0.2,0.5,0.3,0.8c0.3,0.9,0.5,1.5,0.5,1.5l0.7-0.2c0,0-0.2-0.5-0.5-1.4
						c-0.1-0.2-0.2-0.5-0.3-0.8c-0.1-0.3-0.2-0.6-0.2-0.9c-0.2-0.7-0.4-1.4-0.6-2.2c-0.9-3.2-1.4-7.7-1.5-12.2
						c0.1-4.5,0.6-9,1.5-12.2c0.2-0.8,0.4-1.6,0.6-2.2c0.1-0.3,0.2-0.6,0.2-0.9c0.1-0.3,0.2-0.5,0.3-0.8
						C-400.5,182.3-400.3,181.7-400.3,181.7z"/>
				</g>
				<g>
					<path fill="#2FB927" d="M-379.5,151.9l-4.6-7.9c0,0-0.6,0.4-1.6,1c-0.5,0.3-1.2,0.7-1.9,1.1c-0.7,0.5-1.5,1.1-2.3,1.7
						c-0.8,0.6-1.7,1.3-2.7,2c-0.9,0.8-1.8,1.6-2.8,2.5c-2,1.7-3.8,3.8-5.7,5.9c-3.5,4.3-6.6,9-8.3,12.8c-0.9,1.9-1.7,3.4-2.1,4.6
						c-0.4,1.1-0.7,1.8-0.7,1.8l8.5,3.1c0,0,0.2-0.6,0.6-1.5c0.3-1,1-2.3,1.8-3.9c1.5-3.3,4.1-7.3,7.1-11c1.6-1.7,3.1-3.6,4.9-5
						c0.8-0.7,1.6-1.5,2.4-2.2c0.8-0.6,1.6-1.2,2.3-1.7c0.7-0.5,1.4-1.1,2-1.4c0.6-0.4,1.2-0.7,1.6-1
						C-380,152.2-379.5,151.9-379.5,151.9z"/>
					<path fill="#2FB927" d="M-377.8,154.8l-0.4-0.6c0,0-0.5,0.3-1.3,0.8c-0.4,0.3-0.9,0.6-1.5,0.9c-0.6,0.4-1.2,0.9-1.9,1.4
						c-0.7,0.5-1.4,1.1-2.2,1.6c-0.7,0.6-1.5,1.3-2.3,2.1c-1.7,1.4-3.1,3.1-4.6,4.8c-2.8,3.5-5.4,7.3-6.8,10.5
						c-0.7,1.5-1.4,2.8-1.7,3.7c-0.3,0.9-0.5,1.5-0.5,1.5l0.7,0.2c0,0,0.2-0.5,0.5-1.4c0.3-0.9,1-2.2,1.7-3.7
						c1.4-3.1,3.9-6.8,6.7-10.3c1.5-1.6,2.9-3.4,4.6-4.7c0.8-0.7,1.5-1.4,2.3-2c0.8-0.6,1.5-1.1,2.2-1.6c0.7-0.5,1.3-1,1.8-1.4
						c0.6-0.4,1.1-0.7,1.5-0.9C-378.2,155.1-377.8,154.8-377.8,154.8z"/>
				</g>
				<g>
					<path fill="#2FB927" d="M-342.6,145.4l1.6-9c0,0-0.7-0.1-1.9-0.3c-0.6-0.1-1.3-0.2-2.2-0.3c-0.8-0.1-1.8-0.1-2.8-0.2
						c-1-0.1-2.2-0.1-3.4-0.2c-0.6,0-1.2,0-1.8,0c-0.6,0-1.3,0.1-1.9,0.1c-1.3,0.1-2.7,0.1-4,0.3c-1.4,0.2-2.7,0.4-4.1,0.6
						c-0.7,0.1-1.4,0.2-2.1,0.3c-0.7,0.2-1.3,0.3-2,0.5c-1.3,0.3-2.6,0.7-3.9,1c-1.2,0.4-2.4,0.9-3.5,1.3c-1.1,0.4-2.2,0.8-3.1,1.2
						c-1.9,0.9-3.5,1.7-4.5,2.2c-1.1,0.6-1.6,1-1.6,1l4.6,7.9c0,0,0.5-0.3,1.4-0.8c0.9-0.5,2.3-1.1,3.9-1.9c0.8-0.4,1.7-0.7,2.7-1.1
						c1-0.4,2-0.7,3-1.1c1.1-0.3,2.2-0.6,3.3-0.9c0.6-0.1,1.1-0.3,1.7-0.4c0.6-0.1,1.2-0.2,1.8-0.3c1.2-0.2,2.4-0.4,3.5-0.5
						c1.2-0.1,2.3-0.1,3.4-0.2c0.6,0,1.1-0.1,1.6-0.1c0.5,0,1.1-0.1,1.6,0c1,0.1,2,0.1,2.9,0.1c0.9,0.1,1.7,0,2.4,0.2
						c0.7,0.1,1.3,0.2,1.9,0.3C-343.2,145.3-342.6,145.4-342.6,145.4z"/>
					<path fill="#2FB927" d="M-343.2,148.8l0.1-0.7c0,0-0.6-0.1-1.5-0.2c-0.5-0.1-1.1-0.2-1.8-0.3c-0.7-0.1-1.5-0.1-2.3-0.2
						c-0.9,0-1.8-0.1-2.8-0.1c-0.5,0-1,0-1.5,0c-0.5,0-1,0.1-1.6,0.1c-1.1,0.1-2.2,0.1-3.3,0.2c-1.1,0.2-2.2,0.3-3.3,0.5
						c-0.6,0.1-1.1,0.1-1.7,0.3c-0.5,0.1-1.1,0.3-1.6,0.4c-1.1,0.3-2.1,0.6-3.2,0.8c-1,0.4-2,0.7-2.9,1.1c-0.9,0.4-1.8,0.6-2.6,1
						c-1.5,0.7-2.8,1.4-3.7,1.8c-0.9,0.5-1.3,0.8-1.3,0.8l0.4,0.6c0,0,0.5-0.3,1.3-0.8c0.9-0.4,2.1-1,3.7-1.8c0.7-0.4,1.6-0.6,2.5-1
						c0.9-0.3,1.9-0.7,2.8-1c1-0.3,2.1-0.5,3.1-0.8c0.5-0.1,1.1-0.3,1.6-0.4c0.5-0.1,1.1-0.2,1.7-0.3c1.1-0.2,2.2-0.3,3.3-0.5
						c1.1-0.1,2.2-0.1,3.2-0.2c0.5,0,1-0.1,1.5-0.1c0.5,0,1-0.1,1.5,0c1,0,1.9,0.1,2.7,0.1c0.8,0.1,1.6,0,2.3,0.2
						c0.7,0.1,1.3,0.2,1.7,0.3C-343.7,148.7-343.2,148.8-343.2,148.8z"/>
				</g>
				<g>
					<path fill="#2FB927" d="M-310.2,164.1l7-5.8c0,0-0.5-0.5-1.3-1.4c-0.4-0.5-0.9-1-1.5-1.6c-0.3-0.3-0.6-0.6-0.9-1
						c-0.3-0.3-0.7-0.7-1.1-1c-1.6-1.4-3.3-3.1-5.4-4.6c-1.1-0.8-2.1-1.6-3.2-2.4c-1.2-0.7-2.4-1.4-3.5-2.2c-0.6-0.3-1.2-0.7-1.8-1
						c-0.6-0.3-1.2-0.6-1.9-0.9c-1.2-0.6-2.4-1.2-3.6-1.7c-1.2-0.5-2.4-0.9-3.5-1.3c-1.1-0.4-2.2-0.8-3.2-1c-2-0.5-3.7-1-4.9-1.3
						c-1.2-0.2-1.9-0.3-1.9-0.3l-1.6,9c0,0,0.6,0.1,1.6,0.3c1,0.3,2.5,0.6,4.2,1.1c0.9,0.2,1.8,0.5,2.7,0.9c1,0.4,2,0.7,3,1.1
						c1,0.4,2.1,1,3.1,1.5c0.5,0.3,1.1,0.5,1.6,0.8c0.5,0.3,1,0.6,1.5,0.9c1,0.6,2,1.2,3,1.8c1,0.7,1.9,1.4,2.8,2
						c1.9,1.3,3.3,2.8,4.7,4c0.3,0.3,0.7,0.6,0.9,0.9c0.3,0.3,0.5,0.6,0.8,0.9c0.5,0.5,0.9,1,1.3,1.4
						C-310.6,163.7-310.2,164.1-310.2,164.1z"/>
					<path fill="#2FB927" d="M-312.8,166.3l0.5-0.5c0,0-0.4-0.4-1.1-1.2c-0.3-0.4-0.7-0.8-1.2-1.3c-0.2-0.3-0.5-0.5-0.7-0.8
						c-0.3-0.3-0.6-0.5-0.9-0.8c-1.3-1.1-2.7-2.6-4.4-3.8c-0.9-0.6-1.7-1.3-2.6-2c-1-0.6-1.9-1.2-2.9-1.8c-0.5-0.3-1-0.6-1.5-0.9
						c-0.5-0.2-1-0.5-1.5-0.7c-1-0.5-2-1-3-1.4c-1-0.4-2-0.7-2.9-1.1c-0.9-0.3-1.8-0.7-2.6-0.9c-1.6-0.4-3-0.8-4-1
						c-1-0.2-1.5-0.2-1.5-0.2l-0.1,0.7c0,0,0.6,0.1,1.5,0.2c0.9,0.2,2.3,0.6,3.9,1c0.8,0.2,1.7,0.5,2.6,0.8c0.9,0.3,1.9,0.7,2.8,1
						c1,0.4,1.9,0.9,2.9,1.4c0.5,0.2,1,0.5,1.5,0.7c0.5,0.2,1,0.6,1.4,0.8c1,0.6,1.9,1.2,2.9,1.7c0.9,0.6,1.8,1.3,2.6,1.9
						c1.7,1.2,3.1,2.6,4.4,3.7c0.3,0.3,0.6,0.5,0.9,0.8c0.3,0.3,0.5,0.6,0.7,0.8c0.5,0.5,0.9,0.9,1.2,1.3
						C-313.2,165.9-312.8,166.3-312.8,166.3z"/>
				</g>
				<g>
					<path fill="#2FB927" d="M-297.4,199.3h9.1c0,0,0-0.7-0.1-1.9c-0.1-1.2-0.1-3-0.3-5c-0.2-1-0.3-2.2-0.5-3.3
						c-0.2-1.2-0.3-2.4-0.7-3.7c-0.7-2.5-1.3-5.3-2.3-7.8l-0.7-2c-0.2-0.7-0.5-1.3-0.8-1.9c-0.6-1.2-1.2-2.5-1.7-3.6
						c-0.5-1.2-1.2-2.2-1.8-3.3c-0.6-1-1.2-2-1.8-2.9c-1.2-1.7-2.3-3.1-3-4.1c-0.4-0.5-0.7-0.9-0.9-1.1c-0.2-0.2-0.3-0.4-0.3-0.4
						l-7,5.8c0,0,0.1,0.1,0.3,0.3c0.2,0.2,0.4,0.6,0.7,1c0.6,0.8,1.5,2,2.6,3.5c0.5,0.8,1,1.6,1.5,2.5c0.5,0.9,1.1,1.8,1.6,2.8
						c0.5,1,1,2.1,1.5,3.1c0.3,0.5,0.5,1.1,0.7,1.6l0.6,1.7c0.9,2.2,1.4,4.6,2,6.7c0.3,1.1,0.4,2.2,0.6,3.2c0.2,1,0.3,2,0.4,2.9
						c0.2,1.8,0.2,3.3,0.3,4.3C-297.4,198.7-297.4,199.3-297.4,199.3z"/>
					<path fill="#2FB927" d="M-300.8,199.3h0.7c0,0,0-0.6-0.1-1.6c-0.1-1-0.1-2.4-0.2-4.1c-0.1-0.8-0.3-1.8-0.4-2.7
						c-0.2-1-0.2-2-0.6-3c-0.5-2.1-1-4.3-1.9-6.4l-0.6-1.6c-0.2-0.5-0.4-1.1-0.6-1.6c-0.5-1-1-2-1.4-3c-0.4-1-1-1.8-1.5-2.7
						c-0.5-0.8-1-1.6-1.4-2.4c-1-1.4-1.9-2.5-2.5-3.3c-0.3-0.4-0.5-0.7-0.7-0.9c-0.2-0.2-0.3-0.3-0.3-0.3l-0.5,0.5
						c0,0,0.1,0.1,0.3,0.3c0.2,0.2,0.4,0.5,0.7,0.9c0.6,0.8,1.4,1.9,2.4,3.3c0.4,0.7,0.9,1.5,1.4,2.3c0.5,0.8,1.1,1.7,1.5,2.6
						c0.5,0.9,0.9,1.9,1.4,2.9c0.3,0.5,0.5,1,0.6,1.5l0.6,1.6c0.9,2.1,1.3,4.3,1.9,6.3c0.3,1,0.4,2,0.5,3c0.1,1,0.3,1.9,0.4,2.7
						c0.2,1.7,0.2,3.1,0.2,4.1C-300.8,198.7-300.8,199.3-300.8,199.3z"/>
				</g>
			</g>
		</g>
	</g>
</g>
</svg>
