<?xml version="1.0" encoding="utf-8"?>
<!-- Generator: Adobe Illustrator 18.1.0, SVG Export Plug-In . SVG Version: 6.00 Build 0)  -->
<!DOCTYPE svg PUBLIC "-//W3C//DTD SVG 1.1//EN" "http://www.w3.org/Graphics/SVG/1.1/DTD/svg11.dtd">
<svg version="1.1" id="Layer_1" xmlns="http://www.w3.org/2000/svg" xmlns:xlink="http://www.w3.org/1999/xlink" x="0px" y="0px"
	 viewBox="0 0 720 720" enable-background="new 0 0 720 720" xml:space="preserve">
<rect x="5110.5" y="1242" fill="#0768EE" width="3027.5" height="1060"/>
<rect x="5110.5" y="2302.5" fill="#FF9817" width="3027.5" height="1060"/>
<rect x="5110.5" y="3361" fill="#2FB927" width="3036" height="1060"/>
<rect x="5110.5" y="4421" fill="#ED290F" width="3027.5" height="1060"/>
<rect x="8122.5" y="1242" fill="#97DBEE" width="3027.5" height="1060"/>
<rect x="8122.5" y="2302.5" fill="#F3DA5C" width="3027.5" height="1060"/>
<rect x="8114" y="3361" fill="#D1F0A1" width="3036" height="1060"/>
<rect x="8122.5" y="4421" fill="#F8AEBB" width="3027.5" height="1060"/>
<circle fill="none" stroke="#0768EE" stroke-width="15" stroke-miterlimit="10" cx="360" cy="360" r="329"/>
<path fill="#0768EE" d="M360,92C212,92,92,212,92,360s120,268,268,268s268-120,268-268S508,92,360,92z M265.8,478.5l-26.3,17.8
	C147,482.8,132.5,383.7,132.5,383.7l29.5-24.2c21.8-17.9,47.6,6.6,47.6,6.6L351,221.4c12.6-10.8-11.9-32.8-11.4-44.7
	c0.3-7,29.8-33.6,35.8-31.1c101.4,42.6,114.3,110.8,114.3,110.8S475.5,282.6,465,291s-53.4-17.5-53.4-17.5L258.5,428.1
	C275.6,458.4,265.8,478.5,265.8,478.5z M435.8,371.1c0.8,2.5,2.5,5.9-0.2,8c-2.3,1.8-5.6,0.4-6.8-1.8c-4.6-8.7,1-22,5-29.7
	c0.2-0.4,2-2.8,1.8-3.3c0,0,1.3,4.4,1.3,4.4c0.8,2.9-1,6.1-1.7,8.9C434.2,362.2,434.4,366.6,435.8,371.1z M434.7,508
	c-95.9-6.5-81.9-95.9-81.9-95.9c0.9-8.8,4.2-17.1,9.9-23.9c8.5-10.3,20.8-16.1,33.4-19.8c6.1-1.8,22.2-9.8,27.4-3.7
	c1,1.2,1.6,3.1,1.7,6c0.1,5.8,0.5,14.8,8.4,14.7c6.8-0.1,7-7.5,6.3-12.6c-0.4-3-3.5-7.3-2.5-10.3c1-3,5.6-2.8,8.1-2.8
	c22.8-0.5,48,6.6,62.3,28.2c6.5,9.7,11.7,21.7,13.2,33.3C531.8,501.5,434.7,508,434.7,508z"/>
</svg>
