<?xml version="1.0" encoding="utf-8"?>
<!-- Generator: Adobe Illustrator 18.1.0, SVG Export Plug-In . SVG Version: 6.00 Build 0)  -->
<!DOCTYPE svg PUBLIC "-//W3C//DTD SVG 1.1//EN" "http://www.w3.org/Graphics/SVG/1.1/DTD/svg11.dtd">
<svg version="1.1" id="Layer_1" xmlns="http://www.w3.org/2000/svg" xmlns:xlink="http://www.w3.org/1999/xlink" x="0px" y="0px"
	 viewBox="180 171 149 152" enable-background="new 180 171 149 152" xml:space="preserve">
<circle fill="none" stroke="#0768EE" stroke-width="6.9851" stroke-miterlimit="10" cx="254.6" cy="250.8" r="60.8"/>
<circle fill="none" stroke="#0768EE" stroke-width="2" stroke-miterlimit="10" cx="254.6" cy="250.8" r="52.5"/>
<g>
	<g>
		<text transform="matrix(1 0 0 1 259.07 289.4193)" fill="#0768EE" font-family="'Lato-Regular'" font-size="67.2732">C</text>
		<text transform="matrix(1 0 0 1 275.2054 285.2222)" font-family="'Pacifico-Regular'" font-size="13.9186">heck</text>
		<g>
			<path fill="#0768EE" d="M261.8,274.5c-1.1-3-1.6-6.4-1.6-10c0-3.7,0.6-7,1.8-10c1.1-2.7,2.6-5.1,4.5-7.2c0-0.1,0-0.1,0-0.2
				c0.4-1.9,0.7-3.9,0.9-5.9c0.3-2,0.4-3.9,0.4-5.8c0-2-0.2-3.9-0.6-5.7s-0.9-3.4-1.6-4.7s-1.6-2.4-2.6-3.2s-2.2-1.2-3.6-1.2
				c-1.9,0-3.8,0.5-5.6,1.4c-1.8,1-3.5,2.3-5,4.2c-1.6,1.8-3,4-4.2,6.6s-2.3,5.5-3.2,8.7h-0.7c0.2-1.5,0.4-3,0.6-4.3
				c0.1-0.5,0.1-1.1,0.2-1.7c0.1-0.6,0.1-1.1,0.2-1.6s0.1-0.9,0.1-1.3c0-0.4,0-0.6,0-0.8c0-1.9-0.2-3.6-0.5-5s-0.8-2.6-1.4-3.5
				s-1.3-1.6-2.2-2c-0.9-0.4-1.8-0.7-2.8-0.7c-1.4,0-2.7,0.4-4.1,1.1c-1.4,0.7-2.7,1.8-4.1,3.2c-1.3,1.4-2.7,3-3.9,4.9
				c-1.3,1.9-2.5,4-3.6,6.3s-2.2,4.8-3.1,7.5c-1,2.7-1.8,5.5-2.5,8.4c0.3-1.6,0.7-3.3,1-5.1c0.4-1.8,0.7-3.6,1-5.4
				c0.3-1.8,0.5-3.5,0.7-5.2c0.2-1.6,0.3-3.1,0.3-4.3c0-1.6-0.1-3.1-0.3-4.4s-0.6-2.4-1.1-3.4c-0.5-0.9-1.2-1.7-2.1-2.2
				s-2-0.8-3.4-0.8c-1.1,0-2.2,0.2-3.3,0.7c-1.1,0.4-2.3,1.2-3.4,2.2s-2.2,2.4-3.2,4.2c-1,1.7-1.9,3.9-2.7,6.5
				c-0.1,0.1-0.1,0.2-0.1,0.3c0,0.2,0,0.5,0.1,0.8s0.1,0.6,0.2,0.8s0.2,0.5,0.3,0.7c0.1,0.2,0.2,0.3,0.3,0.3c0.4,0,0.7-0.1,1-0.2
				s0.5-0.4,0.6-0.7c0.7-0.9,1.5-1.8,2.3-2.6s1.7-1.5,2.5-2.2c0.8-0.6,1.6-1.1,2.4-1.5s1.4-0.5,1.9-0.5c0.3,0,0.6,0.1,0.7,0.3
				c0.2,0.2,0.3,0.4,0.3,0.7c0.1,0.3,0.1,0.6,0.1,0.9c0,0.3,0,0.6,0,0.8c-0.2,2.3-0.3,4.4-0.5,6.4s-0.3,3.9-0.5,5.8
				c-0.2,1.9-0.4,3.7-0.6,5.6c-0.2,1.9-0.5,3.8-0.9,5.7c-0.3,2-0.7,4.1-1.2,6.3c-0.5,2.2-1,4.6-1.6,7.1c-0.2,0.8-0.3,1.5-0.4,2.3
				s-0.1,1.6-0.1,2.5c0,0.5,0.1,0.9,0.4,1.2c0.2,0.4,0.6,0.7,1,0.9c0.4,0.3,0.9,0.4,1.4,0.6c0.5,0.1,1.1,0.2,1.7,0.2
				c0.5,0,1,0,1.5-0.1s1-0.3,1.5-0.5s0.9-0.6,1.2-1s0.5-1,0.6-1.6c0.3-2.1,0.7-4.4,1.3-6.8c0.6-2.4,1.2-4.9,2-7.4
				c0.7-2.5,1.6-5,2.4-7.5c0.9-2.5,1.8-4.9,2.8-7.2s1.9-4.4,2.9-6.4s1.9-3.7,2.8-5.2s1.8-2.6,2.5-3.4c0.8-0.8,1.5-1.2,2.1-1.2
				c0.7,0,1.3,0.2,1.8,0.6c0.4,0.4,0.8,1,1,1.7s0.4,1.7,0.5,2.7c0.1,1.1,0.1,2.3,0.1,3.6c0,2-0.1,4.1-0.4,6.5
				c-0.3,2.3-0.6,4.7-1,7.1c-0.4,2.4-0.8,4.8-1.3,7.1c-0.5,2.3-0.9,4.4-1.3,6.4c-0.4,1.9-0.7,3.6-1,5s-0.4,2.4-0.4,2.9
				c0,0.9,0.1,1.6,0.3,2.2c0.2,0.6,0.5,1.1,0.8,1.5s0.7,0.7,1.2,0.8s0.9,0.3,1.4,0.3s1.1-0.1,1.6-0.2s1-0.3,1.5-0.6
				c0.5-0.3,0.9-0.6,1.2-1c0.4-0.4,0.6-0.9,0.8-1.6c0.4-2.2,0.8-4.5,1.3-7s1-4.9,1.5-7.5c0.5-2.5,1.1-5,1.7-7.5s1.3-4.9,2-7.1
				c0.7-2.3,1.5-4.4,2.3-6.3c0.8-1.9,1.7-3.6,2.6-5.1c0.9-1.4,1.9-2.5,2.9-3.4c1-0.8,2.1-1.2,3.3-1.2c0.6,0,1.1,0.2,1.5,0.5
				s0.7,0.7,0.9,1.3c0.2,0.6,0.3,1.2,0.4,2s0.1,1.7,0.1,2.7c0,1.6-0.1,3.3-0.3,5.1c-0.2,1.8-0.5,3.5-0.8,5.4
				c-0.3,1.8-0.7,3.6-1.1,5.4c-0.4,1.8-0.8,3.6-1.1,5.4c-0.4,1.8-0.7,3.5-1,5.1c-0.3,1.7-0.5,3.2-0.6,4.7c0,0.2,0,0.4,0,0.6
				s0,0.4,0,0.6c0,1.6,0.3,3,0.8,4.2s1.2,2.2,2.1,3.1c0.9,0.8,1.9,1.4,3,1.9c0.9,0.3,1.8,0.5,2.7,0.6
				C262.6,276.5,262.2,275.5,261.8,274.5z"/>
		</g>
		<g>
			<text transform="matrix(1 0 0 1 209.4195 276.4183)" font-family="'Pacifico-Regular'" font-size="13.9186">ed</text>
		</g>
	</g>
</g>
<rect x="630.9" y="345.8" fill="#0768EE" width="174.2" height="61"/>
<rect x="630.9" y="406.8" fill="#FF9817" width="174.2" height="61"/>
<rect x="630.9" y="467.7" fill="#2FB927" width="174.7" height="61"/>
<rect x="630.9" y="528.7" fill="#ED290F" width="174.2" height="61"/>
<rect x="804.2" y="345.8" fill="#97DBEE" width="174.2" height="61"/>
<rect x="804.2" y="406.8" fill="#F3DA5C" width="174.2" height="61"/>
<rect x="803.7" y="467.7" fill="#D1F0A1" width="174.7" height="61"/>
<rect x="804.2" y="528.7" fill="#F8AEBB" width="174.2" height="61"/>
</svg>
