<?xml version="1.0" encoding="utf-8"?>
<!-- Generator: Adobe Illustrator 18.1.0, SVG Export Plug-In . SVG Version: 6.00 Build 0)  -->
<!DOCTYPE svg PUBLIC "-//W3C//DTD SVG 1.1//EN" "http://www.w3.org/Graphics/SVG/1.1/DTD/svg11.dtd">
<svg version="1.1" id="Layer_1" xmlns="http://www.w3.org/2000/svg" xmlns:xlink="http://www.w3.org/1999/xlink" x="0px" y="0px"
	 viewBox="-256 0 400 432" enable-background="new -256 0 400 432" xml:space="preserve">
<circle fill="none" stroke="#0768EE" stroke-width="25.661" stroke-miterlimit="10" cx="-48.5" cy="211.3" r="172.1"/>
<g>
	<path fill="#0768EE" d="M-187.1,246.1c1.4-6.5,2.6-12.7,3.5-18.6c1.1-5.6,2-11.2,2.6-16.9c0.6-5.6,1.2-10.9,1.8-16.6
		c0.6-5.6,0.9-11.2,1.5-17.2c0.6-5.9,0.9-12.1,1.5-18.9c0-0.6,0-1.5,0-2.4c0-0.8,0-1.7-0.3-2.6c0-0.9-0.3-1.5-0.9-2.1
		c-0.3-0.6-1.2-0.9-2.1-0.9c-1.4,0-2.9,0.3-5,1.2c-8.1,18.4-12.6,38.7-12.6,60c0,16.2,2.6,31.8,7.4,46.4
		C-188.8,253.7-188,249.8-187.1,246.1z"/>
	<path fill="#0768EE" d="M18.2,321.7c-8.3-3.5-15.5-8.5-21.4-14.9s-10.5-14.1-13.7-23c-3.2-8.9-4.9-18.8-4.9-29.5s1.7-20.6,5.2-29.5
		c3.5-8.9,8.4-16.6,14.6-23c6.3-6.4,13.8-11.4,22.6-14.9c8.8-3.5,18.5-5.3,29-5.3c10.5,0,19.5,1.6,27.1,4.9
		c7.6,3.2,14.3,7.6,20.2,13.2l-6.3,8.8c-0.5,0.7-1,1.2-1.6,1.6c-0.6,0.4-1.5,0.6-2.6,0.6c-0.9,0-1.8-0.3-2.7-0.9
		c-1-0.6-2.1-1.4-3.4-2.3c-1.3-0.9-2.9-1.9-4.7-3c-1.8-1.1-3.9-2.1-6.4-3c-2.4-0.9-5.3-1.7-8.5-2.3c-3.2-0.6-7-0.9-11.2-0.9
		c-7.6,0-14.6,1.3-20.9,3.9c-6.3,2.6-11.8,6.3-16.3,11.2c-4.6,4.8-8.1,10.7-10.7,17.7c-2.5,7-3.8,14.7-3.8,23.3
		c0,8.9,1.3,16.8,3.8,23.7c2.5,7,6,12.8,10.4,17.6c4.4,4.8,9.6,8.5,15.6,11c6,2.5,12.5,3.8,19.5,3.8c4.2,0,8-0.2,11.4-0.7
		c1.7-0.3,3.4-0.6,5-1c22.7-26.1,36.4-60.1,36.4-97.4c0-82.1-66.5-148.6-148.6-148.6c-49.9,0-94.1,24.6-121.1,62.4
		c1.1,0.4,2.1,0.8,3,1.3c2.7,1.5,4.7,3.9,6.2,6.5c1.4,2.9,2.6,6.2,3.2,10c0.6,3.8,0.9,8.2,0.9,13c0,3.5-0.3,7.9-0.9,12.7
		c-0.6,5-1.2,10-2.1,15.4c-0.8,5.3-1.7,10.6-2.9,16c-0.8,5.3-2,10.3-2.9,15.1c2.1-8.5,4.5-16.9,7.4-24.8c2.6-8,5.9-15.4,9.1-22.2
		c3.2-6.8,6.8-13,10.6-18.6c3.6-5.6,7.7-10.3,11.5-14.5c4.2-4.1,8-7.4,12.1-9.4c4.2-2,8-3.2,12.1-3.2c2.9,0,5.6,0.9,8.2,2.1
		c2.7,1.2,4.7,3.3,6.5,5.9c1.7,2.7,3.2,6.2,4.1,10.3c0.9,4.1,1.5,9.1,1.5,14.8c0,0.6,0,1.2,0,2.4s0,2.3-0.3,3.8
		c-0.3,1.5-0.3,2.9-0.6,4.7c-0.3,1.8-0.3,3.5-0.6,5c-0.6,3.8-1.2,8.2-1.8,12.7h2.1c2.6-9.4,5.9-18,9.4-25.7
		c3.6-7.6,7.7-14.2,12.4-19.5c4.4-5.6,9.4-9.5,14.8-12.4c5.3-2.6,10.9-4.1,16.6-4.1c4.1,0,7.7,1.2,10.6,3.5c2.9,2.3,5.6,5.6,7.6,9.4
		c2.1,3.8,3.5,8.5,4.7,13.9c1.2,5.3,1.8,10.9,1.8,16.9c0,5.6-0.3,11.2-1.2,17.2c-0.5,5.9-1.4,11.8-2.6,17.4c0,0.3,0,0.3,0,0.6
		c-5.6,6.2-10,13.3-13.3,21.3c-3.5,8.8-5.3,18.6-5.3,29.5c0,10.6,1.5,20.7,4.7,29.5c1.2,2.9,2.3,5.9,3.7,9.1
		c-2.6-0.3-5.3-0.9-7.9-1.8c-3.2-1.5-6.2-3.2-8.8-5.6c-2.7-2.6-4.7-5.6-6.2-9.1c-1.5-3.6-2.4-7.7-2.4-12.4c0-0.6,0-1.2,0-1.8
		s0-1.2,0-1.8c0.3-4.4,0.9-8.8,1.8-13.9c0.8-4.7,1.7-9.7,2.9-15.1c0.8-5.3,2-10.6,3.2-16c1.1-5.3,2.3-10.6,3.2-16
		c0.9-5.6,1.8-10.6,2.4-16c0.6-5.3,0.9-10.3,0.9-15.1c0-2.9,0-5.6-0.3-7.9c-0.3-2.4-0.6-4.1-1.2-5.9c-0.5-1.7-1.4-2.9-2.6-3.8
		c-1.2-0.9-2.6-1.5-4.4-1.5c-3.5,0-6.8,1.1-9.7,3.5c-2.9,2.6-5.9,5.9-8.5,10c-2.6,4.4-5.3,9.4-7.6,15.1s-4.7,11.8-6.8,18.6
		c-2.1,6.5-4.1,13.6-5.9,21c-1.8,7.4-3.5,14.8-5,22.2c-1.5,7.7-3,14.8-4.4,22.2c-1.4,7.4-2.6,14.2-3.8,20.7
		c-0.6,2.1-1.2,3.5-2.4,4.7c-0.9,1.1-2,2-3.5,2.9c-1.5,0.9-2.9,1.5-4.4,1.8c-1.5,0.3-3.2,0.6-4.7,0.6c-1.5,0-2.6-0.6-4.1-0.9
		c-1.4-0.3-2.6-1.2-3.5-2.4c-0.9-1.2-1.8-2.6-2.4-4.4c-0.6-1.8-0.9-3.9-0.9-6.5c0-1.4,0.4-4.4,1.2-8.5c0.8-4.1,1.7-9.1,2.9-14.8
		c1.2-5.9,2.4-12.1,3.8-18.9c1.4-6.8,2.6-13.9,3.8-21c1.1-7.1,2-14.2,2.9-21c0.9-7.1,1.2-13.3,1.2-19.2c0-3.8,0-7.4-0.3-10.6
		c-0.3-2.9-0.9-5.9-1.5-7.9c-0.5-2.1-1.7-3.8-2.9-5c-1.5-1.2-3.2-1.8-5.3-1.8c-1.8,0-3.8,1.1-6.2,3.5c-2.1,2.4-4.8,5.6-7.4,10
		c-2.6,4.4-5.3,9.4-8.2,15.4c-2.9,5.9-5.6,12.1-8.5,18.9c-2.9,6.8-5.6,13.9-8.2,21.3c-2.4,7.4-5,14.8-7.1,22.2
		c-2.4,7.4-4.2,14.8-5.9,21.9c-1.7,7.1-2.9,13.9-3.8,20.1c-0.3,1.8-0.9,3.6-1.8,4.7c-0.9,1.1-2,2.3-3.5,2.9c-1.3,0.5-2.5,1-3.7,1.3
		c26.2,42.3,73,70.6,126.5,70.6c35.3,0,67.8-12.3,93.3-32.9C35,326.8,26.2,325.1,18.2,321.7z"/>
</g>
<rect x="464.6" y="343.8" fill="#0768EE" width="165" height="57.8"/>
<rect x="464.6" y="401.6" fill="#FF9817" width="165" height="57.8"/>
<rect x="464.6" y="459.3" fill="#2FB927" width="165.5" height="57.8"/>
<rect x="464.6" y="517.1" fill="#ED290F" width="165" height="57.8"/>
<rect x="628.8" y="343.8" fill="#97DBEE" width="165" height="57.8"/>
<rect x="628.8" y="401.6" fill="#F3DA5C" width="165" height="57.8"/>
<rect x="628.3" y="459.3" fill="#D1F0A1" width="165.5" height="57.8"/>
<rect x="628.8" y="517.1" fill="#F8AEBB" width="165" height="57.8"/>
</svg>
