<?xml version="1.0" encoding="utf-8"?>
<!-- Generator: Adobe Illustrator 18.1.0, SVG Export Plug-In . SVG Version: 6.00 Build 0)  -->
<!DOCTYPE svg PUBLIC "-//W3C//DTD SVG 1.1//EN" "http://www.w3.org/Graphics/SVG/1.1/DTD/svg11.dtd">
<svg version="1.1" id="Layer_1" xmlns="http://www.w3.org/2000/svg" xmlns:xlink="http://www.w3.org/1999/xlink" x="0px" y="0px"
	 viewBox="0 0 720 720" enable-background="new 0 0 720 720" xml:space="preserve">
<rect x="5110.5" y="1242" fill="#0768EE" width="3027.5" height="1060"/>
<rect x="5110.5" y="2302.5" fill="#FF9817" width="3027.5" height="1060"/>
<rect x="5110.5" y="3361" fill="#2FB927" width="3036" height="1060"/>
<rect x="5110.5" y="4421" fill="#ED290F" width="3027.5" height="1060"/>
<rect x="8122.5" y="1242" fill="#97DBEE" width="3027.5" height="1060"/>
<rect x="8122.5" y="2302.5" fill="#F3DA5C" width="3027.5" height="1060"/>
<rect x="8114" y="3361" fill="#D1F0A1" width="3036" height="1060"/>
<rect x="8122.5" y="4421" fill="#F8AEBB" width="3027.5" height="1060"/>
<circle fill="none" stroke="#0768EE" stroke-width="15" stroke-miterlimit="10" cx="360" cy="360" r="329"/>
<path fill="#0768EE" d="M360,90C210.9,90,90,210.9,90,360s120.9,270,270,270s270-120.9,270-270S509.1,90,360,90z M264.8,168.9
	c11.7,0,21.2,17.4,21.2,38.9s-9.5,38.9-21.2,38.9c-11.7,0-21.2-17.4-21.2-38.9C243.5,186.4,253,168.9,264.8,168.9z M264.8,344.1
	c11.7,0,21.2,5.9,21.2,13.3s-9.5,13.3-21.2,13.3c-11.7,0-21.2-5.9-21.2-13.3S253,344.1,264.8,344.1z M185.2,257.4
	c8.8,0,15.9,8.3,15.9,18.6s-7.1,18.6-15.9,18.6s-15.9-8.3-15.9-18.6S176.4,257.4,185.2,257.4z M333,427h-7.8v28.4h-11.8V477
	c-85.3,9.8-159.9,0-159.9,0v-21.5h-12.8V425h-4.8v-12.8c96.1,2.9,197.2,0,197.2,0V427H333z M528.3,217.2v296
	c0,0-75.4,15.8-167.9,2.6V216.5l-13.6-17.6h196.6L528.3,217.2z"/>
</svg>
