<?xml version="1.0" encoding="utf-8"?>
<!-- Generator: Adobe Illustrator 18.1.0, SVG Export Plug-In . SVG Version: 6.00 Build 0)  -->
<!DOCTYPE svg PUBLIC "-//W3C//DTD SVG 1.1//EN" "http://www.w3.org/Graphics/SVG/1.1/DTD/svg11.dtd">
<svg version="1.1" id="Layer_1" xmlns="http://www.w3.org/2000/svg" xmlns:xlink="http://www.w3.org/1999/xlink" x="0px" y="0px"
	 viewBox="0 0 720 720" enable-background="new 0 0 720 720" xml:space="preserve">
<rect x="5110.5" y="1242" fill="#0768EE" width="3027.5" height="1060"/>
<rect x="5110.5" y="2302.5" fill="#FF9817" width="3027.5" height="1060"/>
<rect x="5110.5" y="3361" fill="#2FB927" width="3036" height="1060"/>
<rect x="5110.5" y="4421" fill="#ED290F" width="3027.5" height="1060"/>
<rect x="8122.5" y="1242" fill="#97DBEE" width="3027.5" height="1060"/>
<rect x="8122.5" y="2302.5" fill="#F3DA5C" width="3027.5" height="1060"/>
<rect x="8114" y="3361" fill="#D1F0A1" width="3036" height="1060"/>
<rect x="8122.5" y="4421" fill="#F8AEBB" width="3027.5" height="1060"/>
<circle fill="none" stroke="#0768EE" stroke-width="15" stroke-miterlimit="10" cx="360" cy="360" r="329"/>
<rect x="767.8" y="269.2" fill="#0768EE" width="174.2" height="61"/>
<rect x="767.8" y="330.1" fill="#FF9817" width="174.2" height="61"/>
<rect x="767.8" y="391.1" fill="#2FB927" width="174.7" height="61"/>
<rect x="767.8" y="452" fill="#ED290F" width="174.2" height="61"/>
<rect x="941.1" y="269.2" fill="#97DBEE" width="174.2" height="61"/>
<rect x="941.1" y="330.1" fill="#F3DA5C" width="174.2" height="61"/>
<rect x="940.5" y="391.1" fill="#D1F0A1" width="174.7" height="61"/>
<rect x="941.1" y="452" fill="#F8AEBB" width="174.2" height="61"/>
<path fill="#0768EE" d="M360,90C210.9,90,90,210.9,90,360s120.9,270,270,270s270-120.9,270-270S509.1,90,360,90z M175.2,296.7
	l-1.9-4.2c-2.1-4.7,0.1-10.2,4.7-12.3l132.7-58.7c4.7-2.1,10.2,0.1,12.3,4.7l1.9,4.2c2.1,4.7-0.1,10.2-4.7,12.3l-132.7,58.7
	C182.8,303.5,177.3,301.3,175.2,296.7z M339.7,337.1c0,30.7-24.9,55.6-55.6,55.6s-55.6-24.9-55.6-55.6s24.9-55.6,55.6-55.6
	S339.7,306.4,339.7,337.1z M361.3,522c-0.1,0-0.2,0-0.3,0c-69.1-2.9-109.2-31.9-130.7-55.8c-23.4-26-30.2-51.4-30.5-52.4
	c-1-4,1.3-8.1,5.3-9.1c4-1.1,8.1,1.3,9.1,5.3c0.1,0.5,6.5,23.5,27.7,46.8c28.4,31.3,68.7,48.2,119.7,50.3c4.1,0.2,7.3,3.7,7.2,7.8
	C368.6,518.9,365.3,522,361.3,522z M439.3,392.7c-30.7,0-55.6-24.9-55.6-55.6s24.9-55.6,55.6-55.6c30.7,0,55.6,24.9,55.6,55.6
	S470,392.7,439.3,392.7z M558.2,296.7c-2.1,4.7-7.6,6.8-12.3,4.7l-132.7-58.7c-4.7-2.1-6.8-7.6-4.7-12.3l1.9-4.2
	c2.1-4.7,7.6-6.8,12.3-4.7l132.7,58.7c4.7,2.1,6.8,7.6,4.7,12.3L558.2,296.7z"/>
</svg>
