<?xml version="1.0" encoding="utf-8"?>
<!-- Generator: Adobe Illustrator 18.1.0, SVG Export Plug-In . SVG Version: 6.00 Build 0)  -->
<!DOCTYPE svg PUBLIC "-//W3C//DTD SVG 1.1//EN" "http://www.w3.org/Graphics/SVG/1.1/DTD/svg11.dtd">
<svg version="1.1" id="Layer_1" xmlns="http://www.w3.org/2000/svg" xmlns:xlink="http://www.w3.org/1999/xlink" x="0px" y="0px"
	 viewBox="0 0 720 720" enable-background="new 0 0 720 720" xml:space="preserve">
<rect x="5110.5" y="1242" fill="#0768EE" width="3027.5" height="1060"/>
<rect x="5110.5" y="2302.5" fill="#FF9817" width="3027.5" height="1060"/>
<rect x="5110.5" y="3361" fill="#2FB927" width="3036" height="1060"/>
<rect x="5110.5" y="4421" fill="#ED290F" width="3027.5" height="1060"/>
<rect x="8122.5" y="1242" fill="#97DBEE" width="3027.5" height="1060"/>
<rect x="8122.5" y="2302.5" fill="#F3DA5C" width="3027.5" height="1060"/>
<rect x="8114" y="3361" fill="#D1F0A1" width="3036" height="1060"/>
<rect x="8122.5" y="4421" fill="#F8AEBB" width="3027.5" height="1060"/>
<circle fill="none" stroke="#0768EE" stroke-width="15" stroke-miterlimit="10" cx="360" cy="360" r="329"/>
<path fill="#0768EE" d="M360,90C210.9,90,90,210.9,90,360s120.9,270,270,270s270-120.9,270-270S509.1,90,360,90z M249.9,534.6
	l-21.6-308.3l9.9-42.2l16.8,44l23,302.4C266,556.4,249.9,534.6,249.9,534.6z M491.8,538.2H301.7V201.8h190.2V538.2z"/>
<g>
	<path fill="none" stroke="#0768EE" stroke-width="2.8803" stroke-miterlimit="10" d="M324.2,250.8c12.1,0,12.1,8.3,24.2,8.3
		c12.1,0,12.1-8.3,24.2-8.3c12.1,0,12.1,8.3,24.2,8.3c12.1,0,12.1-8.3,24.2-8.3c12.1,0,12.1,8.3,24.2,8.3c12.1,0,12.1-8.3,24.2-8.3"
		/>
</g>
<g>
	<path fill="none" stroke="#0768EE" stroke-width="2.8803" stroke-miterlimit="10" d="M324.2,291.3c12.1,0,12.1,8.3,24.2,8.3
		c12.1,0,12.1-8.3,24.2-8.3c12.1,0,12.1,8.3,24.2,8.3c12.1,0,12.1-8.3,24.2-8.3c12.1,0,12.1,8.3,24.2,8.3c12.1,0,12.1-8.3,24.2-8.3"
		/>
</g>
<g>
	<path fill="none" stroke="#0768EE" stroke-width="2.8803" stroke-miterlimit="10" d="M324.2,331.7c12.1,0,12.1,8.3,24.2,8.3
		c12.1,0,12.1-8.3,24.2-8.3c12.1,0,12.1,8.3,24.2,8.3c12.1,0,12.1-8.3,24.2-8.3c12.1,0,12.1,8.3,24.2,8.3c12.1,0,12.1-8.3,24.2-8.3"
		/>
</g>
<g>
	<path fill="none" stroke="#0768EE" stroke-width="2.8803" stroke-miterlimit="10" d="M324.2,372.2c12.1,0,12.1,8.3,24.2,8.3
		c12.1,0,12.1-8.3,24.2-8.3c12.1,0,12.1,8.3,24.2,8.3c12.1,0,12.1-8.3,24.2-8.3c12.1,0,12.1,8.3,24.2,8.3c12.1,0,12.1-8.3,24.2-8.3"
		/>
</g>
<g>
	<path fill="none" stroke="#0768EE" stroke-width="2.8803" stroke-miterlimit="10" d="M324.2,412.7c12.1,0,12.1,8.3,24.2,8.3
		c12.1,0,12.1-8.3,24.2-8.3c12.1,0,12.1,8.3,24.2,8.3c12.1,0,12.1-8.3,24.2-8.3c12.1,0,12.1,8.3,24.2,8.3c12.1,0,12.1-8.3,24.2-8.3"
		/>
</g>
<g>
	<path fill="none" stroke="#0768EE" stroke-width="2.8803" stroke-miterlimit="10" d="M324.2,453.1c12.1,0,12.1,8.3,24.2,8.3
		c12.1,0,12.1-8.3,24.2-8.3c12.1,0,12.1,8.3,24.2,8.3c12.1,0,12.1-8.3,24.2-8.3c12.1,0,12.1,8.3,24.2,8.3c12.1,0,12.1-8.3,24.2-8.3"
		/>
</g>
<g>
	<path fill="none" stroke="#0768EE" stroke-width="2.8803" stroke-miterlimit="10" d="M324.2,493.6c12.1,0,12.1,8.3,24.2,8.3
		c12.1,0,12.1-8.3,24.2-8.3c12.1,0,12.1,8.3,24.2,8.3c12.1,0,12.1-8.3,24.2-8.3c12.1,0,12.1,8.3,24.2,8.3c12.1,0,12.1-8.3,24.2-8.3"
		/>
</g>
</svg>
