<?xml version="1.0" encoding="utf-8"?>
<!-- Generator: Adobe Illustrator 18.1.0, SVG Export Plug-In . SVG Version: 6.00 Build 0)  -->
<!DOCTYPE svg PUBLIC "-//W3C//DTD SVG 1.1//EN" "http://www.w3.org/Graphics/SVG/1.1/DTD/svg11.dtd">
<svg version="1.1" id="Layer_1" xmlns="http://www.w3.org/2000/svg" xmlns:xlink="http://www.w3.org/1999/xlink" x="0px" y="0px"
	 viewBox="0 0 720 720" enable-background="new 0 0 720 720" xml:space="preserve">
<rect x="5110.5" y="1242" fill="#0768EE" width="3027.5" height="1060"/>
<rect x="5110.5" y="2302.5" fill="#FF9817" width="3027.5" height="1060"/>
<rect x="5110.5" y="3361" fill="#2FB927" width="3036" height="1060"/>
<rect x="5110.5" y="4421" fill="#ED290F" width="3027.5" height="1060"/>
<rect x="8122.5" y="1242" fill="#97DBEE" width="3027.5" height="1060"/>
<rect x="8122.5" y="2302.5" fill="#F3DA5C" width="3027.5" height="1060"/>
<rect x="8114" y="3361" fill="#D1F0A1" width="3036" height="1060"/>
<rect x="8122.5" y="4421" fill="#F8AEBB" width="3027.5" height="1060"/>
<path fill="none" stroke="#0768EE" stroke-width="15" stroke-miterlimit="10" d="M360,31C178.3,31,31,178.3,31,360
	s147.3,329,329,329s329-147.3,329-329S541.7,31,360,31z M360,630C210.9,630,90,509.1,90,360S210.9,90,360,90s270,120.9,270,270
	S509.1,630,360,630z"/>
<path fill="none" stroke="#0768EE" stroke-width="7.3612" stroke-miterlimit="10" d="M412.5,303H307c-4.8,0-8.7-1.8-8.7-4
	l-17.3-55.4c0-2.2,3.9-4,8.7-4h140.2c4.8,0,8.7,1.8,8.7,4L421.2,299C421.2,301.2,417.3,303,412.5,303z"/>
<polygon fill="#0768EE" points="352.7,303 359.7,266.8 366.8,303 "/>
<g>
	<path fill="#0768EE" d="M359.9,90c-149.1,0-270,120.9-270,270s120.9,270,270,270s270-120.9,270-270S509,90,359.9,90z M521.5,424.9
		c-4.9,0-9.4,0.1-13.5,0.3L498,495c0,10.7-8.8,19.5-19.5,19.5H241.3c-10.7,0-19.5-8.8-19.5-19.5l-8.1-56.2c-2.4,0.1-5,0.1-7.7,0.1
		c-49.7,0-52.1-9-96.4-13.3v-40.3c2.7-0.1,5.3-0.1,7.8,0v25.6h4.8v-25.4c5,0.3,9.4,0.8,13.5,1.5v23.9h4.8v-22.9
		c4.8,1.1,9.1,2.3,13.5,3.7v19.3h4.8v-17.8c4.2,1.2,8.6,2.5,13.5,3.5v14.3h4.8v-13.4c4,0.7,8.5,1.3,13.5,1.7v11.6h4.8v-11.3
		c3.3,0.2,6.8,0.3,10.6,0.3c0.7,0,1.4,0,2,0L182.8,225c0-10.7,8.8-19.5,19.5-19.5h315.2c10.7,0,19.5,8.8,19.5,19.5l-23.2,160.9
		c2-0.1,4.1-0.1,6.3-0.1v25.1h4.8v-25.1c4.9,0,9.4,0.2,13.5,0.4v24.7h4.8v-24.4c5,0.4,9.4,0.9,13.5,1.5v22.9h4.8v-22.1
		c4.8,0.8,9.1,1.8,13.5,2.8v19.3h4.8v-18.2c4.2,1,8.5,2,13.5,2.9v15.3h4.8v-14.4c3.6,0.6,7.6,1.2,12.1,1.7v41.2
		C573.8,438.7,567.7,424.9,521.5,424.9z"/>
</g>
<path fill="#0768EE" d="M513.7,386.2c-2.6,0.1-5,0.2-7.3,0.3v24.6h-4.8v-24.3c-5,0.4-9.4,1-13.5,1.7v22.6h-4.8v-21.6
	c-4.8,1-9.2,2.1-13.5,3.3v18.3H465v-17.1c-4.2,1.1-8.6,2.2-13.5,3.1v14h-4.8V398c-4,0.6-8.5,1.1-13.5,1.5v11.6h-4.8v-11.3
	c-3.7,0.2-7.8,0.3-12.2,0.3c-0.4,0-0.8,0-1.3,0v11.1h-4.8V400c-5-0.1-9.4-0.4-13.5-0.7v11.8h-4.8v-12.3c-5-0.6-9.4-1.3-13.5-2.2
	v14.5h-4.8v-15.5c-4.7-1.1-9-2.3-13.5-3.5v19h-4.8v-20.3c-4.1-1-8.5-1.9-13.5-2.7v23h-4.8v-23.6c-4-0.5-8.5-0.9-13.5-1.1v24.8h-4.8
	v-25c-2.4-0.1-4.9-0.1-7.5-0.1c-2.1,0-4,0-5.9,0.1v25h-4.8v-24.9c-5,0.2-9.4,0.6-13.5,1v23.8h-4.8v-23.2c-5,0.7-9.4,1.6-13.5,2.6
	v20.6h-4.8v-19.4c-4.5,1.2-8.8,2.4-13.5,3.5v15.9h-4.8v-14.8c-4.1,0.9-8.5,1.7-13.5,2.3v12.5H227v-12c-4,0.4-8.5,0.7-13.5,0.8v11.2
	l-3.7,0l-1.1-11.1c-1,0,4.9,39,4.9,39c44.9-1.3,47.5-13.9,97.4-13.9c52.6,0,52.6,14,105.2,14c47.7,0,52.1-11.6,91.8-13.7
	L513.7,386.2z"/>
</svg>
